<mxfile host="app.diagrams.net" modified="2023-08-19T01:29:48.837Z" agent="Mozilla/5.0 (Windows NT 10.0; Win64; x64) AppleWebKit/537.36 (KHTML, like Gecko) Chrome/115.0.0.0 Safari/537.36" version="21.6.8" etag="lKGZmVnS8u2GPRwNQTG7" type="github">
  <diagram name="페이지-1" id="0a-EYmFnY9Xfg3fYTXnl">
    <mxGraphModel>
      <root>
        <mxCell id="0" />
        <mxCell id="1" parent="0" />
      </root>
    </mxGraphModel>
  </diagram>
</mxfile>
